<svg xmlns="http://www.w3.org/2000/svg" viewBox="0 0 79.06 77.96"><defs><style>.cls-1,.cls-4,.cls-5,.cls-6,.cls-7,.cls-8,.cls-9{fill:#002880;}.cls-1,.cls-2{fill-rule:evenodd;}.cls-2,.cls-3{fill:#fe015b;}.cls-3{font-size:11.75px;font-family:Futura-Medium, Futura;font-weight:500;}.cls-5{letter-spacing:0.02em;}.cls-6{letter-spacing:-0.01em;}.cls-7{letter-spacing:-0.01em;}.cls-8{letter-spacing:0.01em;}.cls-9{letter-spacing:0em;}</style></defs><g id="Ebene_2" data-name="Ebene 2"><g id="_ŽÓť_1" data-name="—ŽÓť 1"><path class="cls-1" d="M16,9.47l.52.31a11.53,11.53,0,0,0,11.76,0L31,8.21a16.78,16.78,0,0,1,17.16,0l2.71,1.56a11.48,11.48,0,0,0,11.76,0l.53-.3L53.26,3.78a26.83,26.83,0,0,0-27.46,0Z"/><path class="cls-1" d="M66.18,14.81l-.51.3a11.47,11.47,0,0,0-5.88,10.18v3.13A16.78,16.78,0,0,1,51.2,43.29l-2.7,1.56A11.47,11.47,0,0,0,42.62,55v.61L52.46,50A27.25,27.25,0,0,0,62.6,40h0a27.39,27.39,0,0,0,3.58-13.78Z"/><path class="cls-1" d="M36.43,55.45V55a11.48,11.48,0,0,0-5.87-10.18l-2.72-1.56A17.23,17.23,0,0,1,21.52,37h0a17.12,17.12,0,0,1-2.26-8.61V25.29a11.47,11.47,0,0,0-5.88-10.18l-.5-.3V26a27.35,27.35,0,0,0,3.57,13.78,27.45,27.45,0,0,0,10.15,10Z"/><path class="cls-2" d="M43.72,39.64V34.08a4.74,4.74,0,0,1,.63-2.39A4.64,4.64,0,0,1,46.11,30l4.81-2.78a3.74,3.74,0,0,0,1.93-4,4.73,4.73,0,0,0-.6-1.66,4.63,4.63,0,0,0-1.14-1.35,3.73,3.73,0,0,0-4.39-.31l-4.8,2.78a4.76,4.76,0,0,1-2.39.66,4.7,4.7,0,0,1-2.38-.66L32.33,19.9a3.73,3.73,0,0,0-4.38.3,5,5,0,0,0-1.15,1.35,4.84,4.84,0,0,0-.59,1.67,3.72,3.72,0,0,0,1.93,4L33,30a4.69,4.69,0,0,1,1.75,1.73,4.75,4.75,0,0,1,.63,2.4v5.55a3.73,3.73,0,0,0,2.45,3.65,5,5,0,0,0,3.48,0A3.73,3.73,0,0,0,43.72,39.64Z"/><path class="cls-2" d="M39.55,12.06a4.7,4.7,0,1,0,4.67,4.71A4.7,4.7,0,0,0,39.55,12.06Z"/><text class="cls-3" transform="translate(0 74.57)">e<tspan class="cls-4" x="6.5" y="0">heal</tspan><tspan class="cls-5" x="29.42" y="0">t</tspan><tspan class="cls-4" x="32.87" y="0">h </tspan><tspan class="cls-6" x="42.94" y="0">F</tspan><tspan class="cls-7" x="48.8" y="0">r</tspan><tspan class="cls-4" x="53.12" y="0">ac</tspan><tspan class="cls-8" x="65.77" y="0">t</tspan><tspan class="cls-9" x="69.08" y="0">al</tspan></text></g></g></svg>